<?xml version="1.0" encoding="iso-8859-1"?>
<!-- Generator: Adobe Illustrator 16.0.0, SVG Export Plug-In . SVG Version: 6.00 Build 0)  -->
<!DOCTYPE svg PUBLIC "-//W3C//DTD SVG 1.1//EN" "http://www.w3.org/Graphics/SVG/1.1/DTD/svg11.dtd">
<svg version="1.1" id="Capa_1" xmlns="http://www.w3.org/2000/svg" xmlns:xlink="http://www.w3.org/1999/xlink" x="0px" y="0px"
	 width="50.002px" height="50.002px" viewBox="0 0 50.002 50.002" style="enable-background:new 0 0 50.002 50.002;"
	 xml:space="preserve">
<g>
	<g>
		<path d="M46.355,40.995l-3.839-14.453c-0.391-0.406-0.848-0.739-1.374-1.011c-2.661-1.358-7.05-2.489-9.837-3.558
			c-0.207-0.079-0.453-0.239-0.539-0.424c-0.227-0.5-0.381-1.031-0.543-1.558c-0.104-0.338-0.192-0.651-0.562-0.813
			c-0.102-0.044-0.19-0.239-0.189-0.364c0.021-1.221-0.264-2.506,0.646-3.567c0.024-0.032,0.041-0.082,0.057-0.122
			c0.49-1.072,0.578-2.289,1.257-3.287c0.013-0.018,0.022-0.053,0.022-0.085c0.082-0.762,0.166-1.513,0.229-2.278
			c0.006-0.093-0.08-0.26-0.159-0.285c-0.379-0.137-0.355-0.438-0.354-0.741c0-1.486,0-1.323-0.002-2.806
			c0-0.862-0.254-1.631-0.906-2.217c-0.742-0.664-1.504-1.311-2.266-1.957c-0.367-0.311-0.398-0.553-0.058-0.895
			c0.153-0.149,0.353-0.262,0.526-0.387c-0.041-0.057-0.075-0.112-0.116-0.174c-0.229,0-0.466-0.033-0.688,0.007
			c-0.838,0.14-1.688,0.254-2.518,0.449c-1.577,0.374-3.113,0.869-4.398,1.927c-0.879,0.727-1.58,1.565-1.668,2.759
			c-0.044,0.622-0.039,1.25-0.042,1.877c-0.005,1.021,0.003,0.396-0.018,1.416c-0.003,0.165-0.097,0.435-0.212,0.474
			c-0.409,0.133-0.427,0.399-0.367,0.742c0.042,0.236,0.008,0.484,0.063,0.713c0.138,0.637,0.294,1.273,0.478,1.9
			c0.137,0.469,0.399,0.908,0.474,1.383c0.147,0.951,0.5,1.774,1.143,2.494c0.105,0.117,0.186,0.314,0.173,0.469
			c-0.053,0.731-0.128,1.463-0.223,2.185c-0.02,0.146-0.171,0.357-0.294,0.379c-0.486,0.103-0.56,0.478-0.674,0.856
			c-0.152,0.494-0.319,0.994-0.509,1.478c-0.063,0.148-0.211,0.31-0.36,0.373c-0.865,0.374-8.847,3.222-9.76,3.707
			c-0.534,0.292-1.036,0.608-1.459,1.006L3.647,40.995c0.904,0,3.71,0.297,4.728,0.76V31.053c0-2.19,1.783-3.975,3.975-3.975h11.857
			l0.409-2.63l-1.275-1.264l0.52-1.271h2.281l0.521,1.271l-1.275,1.264l0.408,2.63h11.857c2.191,0,3.975,1.783,3.975,3.975v10.702
			C42.645,41.292,45.45,40.995,46.355,40.995z"/>
		<path d="M37.652,47.885c1.187,0,2.146-0.961,2.146-2.142v-14.69c0-1.186-0.961-2.146-2.146-2.146H12.35
			c-1.186,0-2.146,0.962-2.146,2.146v14.69c0,1.181,0.961,2.142,2.146,2.142H8.575c0,1.685,0.729,2.117,1.623,2.117h29.605
			c0.894,0,1.623-0.434,1.623-2.117H37.652z"/>
	</g>
</g>
<g>
</g>
<g>
</g>
<g>
</g>
<g>
</g>
<g>
</g>
<g>
</g>
<g>
</g>
<g>
</g>
<g>
</g>
<g>
</g>
<g>
</g>
<g>
</g>
<g>
</g>
<g>
</g>
<g>
</g>
</svg>
